IKResults
version=1
nRows=14
nColumns=40
inDegrees=yes

Units are S.I. units (second, meters, Newtons, ...)
Angles are in degrees.

endheader
time	pelvis_tilt	pelvis_list	pelvis_rotation	pelvis_tx	pelvis_ty	pelvis_tz	hip_flexion_r	hip_adduction_r	hip_rotation_r	knee_angle_r	knee_angle_r_beta	ankle_angle_r	subtalar_angle_r	mtp_angle_r	hip_flexion_l	hip_adduction_l	hip_rotation_l	knee_angle_l	knee_angle_l_beta	ankle_angle_l	subtalar_angle_l	mtp_angle_l	lumbar_extension	lumbar_bending	lumbar_rotation	arm_flex_r	arm_add_r	arm_rot_r	elbow_flex_r	pro_sup_r	wrist_flex_r	wrist_dev_r	arm_flex_l	arm_add_l	arm_rot_l	elbow_flex_l	pro_sup_l	wrist_flex_l	wrist_dev_l
      2.68000000	     15.97320880	     -2.03690463	      4.56029174	      0.48271627	      0.95810424	      1.45580492	    -13.37557264	      5.38656005	     -7.31616849	    -13.66207189	     -0.23844814	      7.23684040	     -5.95108254	     -7.81847631	    -10.93135446	      4.20395097	     -1.83732120	    -41.53197776	     -0.72486976	     12.92824848	     18.28238122	      9.85314268	    -22.85236595	      3.45866130	     -4.10134923	      0.04736039	    -11.56225806	      4.43962908	     29.22385173	     89.95437384	      0.00000000	      0.00000000	      7.09280254	      6.73589715	      8.83778137	     20.39385353	     89.95437384	      0.00000000	      0.00000000
      2.69000000	     15.83393252	     -1.83498889	      4.60460065	      0.48794422	      0.95806667	      1.45641714	    -13.58856949	      5.26427664	     -7.28719438	    -13.69030338	     -0.23894087	      7.52406975	     -5.98833278	     -7.76303069	    -10.06701892	      4.01142266	     -1.65808986	    -40.75010329	     -0.71122347	     13.51830251	     18.20379604	      9.77337113	    -22.72517326	      3.21433425	     -4.11883150	      0.03488567	    -11.57648831	      4.43355702	     29.62440020	     89.95437384	      0.00000000	      0.00000000	      6.64387755	      6.88686578	      8.89679235	     20.08425961	     89.95437384	      0.00000000	      0.00000000
      2.70000000	     15.68404585	     -1.66043725	      4.53653015	      0.49286229	      0.95802178	      1.45725033	    -13.78933145	      5.12816246	     -7.34934839	    -13.62408602	     -0.23778516	      7.84061280	     -6.02361558	     -7.71464820	     -9.19694896	      3.78866616	     -1.50055604	    -39.90422312	     -0.69646008	     14.08971822	     18.12579695	      9.69402254	    -22.65981091	      2.95311247	     -3.96995495	      0.04414062	    -11.59310185	      4.49092549	     30.01613193	     89.95437384	      0.00000000	      0.00000000	      6.26712100	      7.02424411	      8.98097124	     19.80008805	     89.95437384	      0.00000000	      0.00000000
      2.71000000	     15.99997989	     -0.97860451	      4.12619008	      0.49804476	      0.95875937	      1.45774123	    -14.58805292	      4.40931631	     -6.62007357	    -13.59665752	     -0.23730644	      8.25878082	     -6.19163102	     -7.67481968	     -9.29690552	      2.75576447	     -1.59450843	    -38.32855083	     -0.66895941	     14.86383618	     18.09404148	      9.72466015	    -23.14226386	      2.14801610	     -3.59833846	     -0.14340389	    -11.81696076	      4.65985139	     30.92042306	     89.95437384	      0.00000000	      0.00000000	      6.02608423	      7.03082302	      9.58416659	     19.42834052	     89.95437384	      0.00000000	      0.00000000
      2.72000000	     15.83633239	     -0.87173070	      4.22152545	      0.50302282	      0.95848937	      1.45844227	    -14.70314580	      4.40977204	     -6.76667817	    -13.69138543	     -0.23895976	      8.39406155	     -6.17402965	     -7.59283644	     -8.26665173	      2.73586222	     -1.21374855	    -37.59032853	     -0.65607500	     14.96226408	     17.94882073	      9.63405143	    -23.03152473	      1.99394779	     -3.65445215	     -0.08127294	    -11.79455150	      4.68145822	     31.26191883	     89.95437384	      0.00000000	      0.00000000	      5.54476277	      7.22662919	      9.61670921	     19.27092252	     89.95437384	      0.00000000	      0.00000000
      2.73000000	     15.97922618	     -0.37207209	      3.99584757	      0.50834754	      0.95879507	      1.45877479	    -15.33412813	      3.90770849	     -6.42798166	    -13.53830020	     -0.23628791	      8.86035996	     -6.21734929	     -7.55321176	     -8.04490568	      2.04295382	     -1.13949208	    -36.11381460	     -0.63030497	     15.40392378	     17.70374343	      9.52861753	    -23.25956501	      1.42047810	     -3.45924821	     -0.19072900	    -11.97847370	      4.95618366	     31.88344008	     89.95437384	      0.00000000	      0.00000000	      5.25698074	      7.25043515	     10.11838385	     18.86300002	     89.95437384	      0.00000000	      0.00000000
      2.74000000	     16.23097857	      0.03741913	      3.80990057	      0.51376659	      0.95915602	      1.45920105	    -16.06396912	      3.48517577	     -6.48491612	    -13.42000218	     -0.23422322	      9.21692775	     -5.76114231	     -6.96927978	     -7.85273411	      1.59772447	     -0.62715442	    -34.71108688	     -0.60582275	     15.27207106	     17.55846588	      8.86296461	    -23.59652373	      0.93606193	     -3.34372094	     -0.18342345	    -12.06537839	      5.09967498	     32.31337893	     89.95437384	      0.00000000	      0.00000000	      4.79936250	      7.31272240	     10.72210490	     18.73992387	     89.95437384	      0.00000000	      0.00000000
      2.75000000	     16.24938762	      0.32328316	      3.75015060	      0.51896082	      0.95906856	      1.45961561	    -16.48380980	      3.24162928	     -6.41246371	    -13.40363710	     -0.23393760	      9.62064054	     -5.70395687	     -6.52436837	     -7.29072568	      1.28228908	     -0.25860148	    -33.47070902	     -0.58417408	     15.31348461	     17.28558518	      8.18776951	    -23.69146827	      0.59931335	     -3.26306913	     -0.21138786	    -12.17139013	      5.34003003	     32.74830304	     89.95437384	      0.00000000	      0.00000000	      4.40667846	      7.41335830	     10.94482687	     18.54682628	     89.95437384	      0.00000000	      0.00000000
      2.76000000	     16.23475182	      0.59506781	      3.66648450	      0.52406997	      0.95888370	      1.45999338	    -16.81284816	      2.97098936	     -6.40790408	    -13.46310013	     -0.23497542	      9.98096315	     -5.39333451	     -6.23741966	     -6.64849794	      1.02583653	      0.36629219	    -32.26023415	     -0.56304730	     15.13088373	     16.83140133	      7.52879365	    -23.75502794	      0.27023001	     -3.14950763	     -0.20014832	    -12.25553290	      5.41490782	     33.13625275	     89.95437384	      0.00000000	      0.00000000	      4.04564318	      7.48521449	     11.21749789	     18.33535224	     89.95437384	      0.00000000	      0.00000000
      2.77000000	     16.33464644	      0.88519307	      3.57069927	      0.52932068	      0.95884058	      1.46034577	    -17.29668154	      2.70908864	     -6.19199681	    -13.48706556	     -0.23539370	     10.19730460	     -5.54030896	     -5.96119416	     -6.19592415	      0.77159938	      1.10665092	    -30.96178069	     -0.54038502	     14.85787563	     16.21328469	      6.68119593	    -23.93979972	     -0.07505345	     -3.05961102	     -0.21002392	    -12.35735798	      5.61629670	     33.53001347	     89.95437384	      0.00000000	      0.00000000	      3.66266809	      7.60125200	     11.25334584	     18.17617335	     89.95437384	      0.00000000	      0.00000000
      2.78000000	     16.18435065	      1.13933356	      3.59797365	      0.53432794	      0.95834841	      1.46053145	    -17.45092898	      2.50094092	     -6.09073824	    -13.58179591	     -0.23704706	     10.65257471	     -5.61306877	     -5.90412469	     -5.34507710	      0.56232420	      1.85991409	    -29.85089330	     -0.52099637	     14.54835624	     15.35620179	      6.28138631	    -23.87867121	     -0.35153394	     -3.06505997	     -0.20218595	    -12.43358803	      5.74314063	     33.91132572	     89.95437384	      0.00000000	      0.00000000	      3.34723139	      7.71017131	     11.27442341	     17.91233909	     89.95437384	      0.00000000	      0.00000000
      2.79000000	     15.94629935	      1.15764431	      3.78105884	      0.53933665	      0.95755826	      1.46072370	    -17.39906320	      2.56100876	     -6.33267437	    -13.87627419	     -0.24218667	     10.82007958	     -5.56545686	     -5.79831481	     -4.14707672	      0.61415850	      2.53180819	    -29.22635272	     -0.51009608	     14.34906655	     14.88468191	      6.12900885	    -23.70944145	     -0.36031293	     -3.17016358	     -0.14090830	    -12.43584703	      5.75498090	     34.18981067	     89.95437384	      0.00000000	      0.00000000	      2.91079264	      7.84520302	     11.21922714	     17.85450636	     89.95437384	      0.00000000	      0.00000000
      2.80000000	     16.41068271	      1.56012195	      3.34341700	      0.54521940	      0.95801364	      1.46112383	    -18.48465809	      2.10223481	     -5.89270390	    -13.56687478	     -0.23678663	     11.03905503	     -5.58039130	     -5.75541898	     -4.43247562	      0.30112897	      4.22266640	    -27.40388340	     -0.47828799	     13.15573368	     13.42156009	      5.20758485	    -24.23383719	     -0.88855671	     -2.80291028	     -0.23349950	    -12.69223197	      6.16941176	     34.73374254	     89.95437384	      0.00000000	      0.00000000	      2.60766091	      7.83350808	     11.55182309	     17.57811019	     89.95437384	      0.00000000	      0.00000000
      2.81000000	     16.08611743	      1.57469065	      3.61085032	      0.55007167	      0.95698222	      1.46101019	    -18.34774402	      2.18002867	     -6.16992207	    -13.82127807	     -0.24122681	     11.25659696	     -5.53664650	     -5.65181533	     -3.15913226	      0.32697140	      4.92836474	    -26.76808828	     -0.46719127	     12.75048600	     12.90670476	      5.06616552	    -24.01715952	     -0.84014598	     -3.04150345	     -0.14758234	    -12.69951056	      6.18646856	     35.06644936	     89.95437384	      0.00000000	      0.00000000	      2.21913195	      7.94158533	     11.44745000	     17.48877602	     89.95437384	      0.00000000	      0.00000000
